<?xml version="1.0" encoding="UTF-8" standalone="no"?>
<!DOCTYPE svg PUBLIC "-//W3C//DTD SVG 1.1//EN"
 "http://www.w3.org/Graphics/SVG/1.1/DTD/svg11.dtd">
<!-- Generated by graphviz version 2.47.0 (20210316.0004)
 -->
<!-- Title: dependencies Pages: 1 -->
<svg width="1792pt" height="284pt"
 viewBox="0.00 0.00 1792.00 284.00" xmlns="http://www.w3.org/2000/svg" xmlns:xlink="http://www.w3.org/1999/xlink">
<g id="graph0" class="graph" transform="scale(1 1) rotate(0) translate(4 280)">
<title>dependencies</title>
<polygon fill="white" stroke="transparent" points="-4,4 -4,-280 1788,-280 1788,4 -4,4"/>
<text text-anchor="start" x="871.01" y="-42.4" font-family="sans-serif" font-weight="bold" font-size="14.00">Legend</text>
<polygon fill="#ffffb3" stroke="transparent" points="658,-10 658,-30 678,-30 678,-10 658,-10"/>
<text text-anchor="start" x="681.63" y="-15.4" font-family="sans-serif" font-size="14.00"> &#160;Declarations</text>
<polygon fill="#8dd3c7" stroke="transparent" points="771,-10 771,-30 791,-30 791,-10 771,-10"/>
<text text-anchor="start" x="794.73" y="-15.4" font-family="sans-serif" font-size="14.00"> &#160;Module</text>
<polygon fill="#80b1d3" stroke="transparent" points="857,-10 857,-30 877,-30 877,-10 857,-10"/>
<text text-anchor="start" x="880.78" y="-15.4" font-family="sans-serif" font-size="14.00"> &#160;Bootstrap</text>
<polygon fill="#fdb462" stroke="transparent" points="954,-10 954,-30 974,-30 974,-10 954,-10"/>
<text text-anchor="start" x="977.67" y="-15.4" font-family="sans-serif" font-size="14.00"> &#160;Providers</text>
<polygon fill="#fb8072" stroke="transparent" points="1050,-10 1050,-30 1070,-30 1070,-10 1050,-10"/>
<text text-anchor="start" x="1073.73" y="-15.4" font-family="sans-serif" font-size="14.00"> &#160;Exports</text>
<g id="clust1" class="cluster">
<title>cluster_AppModule</title>
<polygon fill="none" stroke="black" stroke-dasharray="1,5" points="8,-70 8,-268 1776,-268 1776,-70 8,-70"/>
</g>
<g id="clust16" class="cluster">
<title>cluster_AppModule_providers</title>
<polygon fill="none" stroke="black" points="1554,-78 1554,-130 1768,-130 1768,-78 1554,-78"/>
</g>
<g id="clust13" class="cluster">
<title>cluster_AppModule_imports</title>
<polygon fill="none" stroke="black" points="1402,-78 1402,-130 1546,-130 1546,-78 1402,-78"/>
</g>
<g id="clust15" class="cluster">
<title>cluster_AppModule_bootstrap</title>
<polygon fill="none" stroke="black" points="781,-208 781,-260 905,-260 905,-208 781,-208"/>
</g>
<g id="clust2" class="cluster">
<title>cluster_AppModule_declarations</title>
<polygon fill="none" stroke="black" points="16,-78 16,-130 1394,-130 1394,-78 16,-78"/>
</g>
<!-- AppComponent -->
<g id="node1" class="node">
<title>AppComponent</title>
<polygon fill="#ffffb3" stroke="black" points="1385.94,-122 1280.06,-122 1280.06,-86 1385.94,-86 1385.94,-122"/>
<text text-anchor="middle" x="1333" y="-99.8" font-family="Times,serif" font-size="14.00">AppComponent</text>
</g>
<!-- AppModule -->
<g id="node11" class="node">
<title>AppModule</title>
<polygon fill="#8dd3c7" stroke="black" points="884.66,-187 881.66,-191 860.66,-191 857.66,-187 801.34,-187 801.34,-151 884.66,-151 884.66,-187"/>
<text text-anchor="middle" x="843" y="-164.8" font-family="Times,serif" font-size="14.00">AppModule</text>
</g>
<!-- AppComponent&#45;&gt;AppModule -->
<g id="edge1" class="edge">
<title>AppComponent&#45;&gt;AppModule</title>
<path fill="none" stroke="black" d="M1333,-122.11C1333,-141.34 1333,-169 1333,-169 1333,-169 894.78,-169 894.78,-169"/>
<polygon fill="black" stroke="black" points="894.78,-165.5 884.78,-169 894.78,-172.5 894.78,-165.5"/>
</g>
<!-- CommentComponent -->
<g id="node2" class="node">
<title>CommentComponent</title>
<polygon fill="#ffffb3" stroke="black" points="1262.06,-122 1125.94,-122 1125.94,-86 1262.06,-86 1262.06,-122"/>
<text text-anchor="middle" x="1194" y="-99.8" font-family="Times,serif" font-size="14.00">CommentComponent</text>
</g>
<!-- CommentComponent&#45;&gt;AppModule -->
<g id="edge2" class="edge">
<title>CommentComponent&#45;&gt;AppModule</title>
<path fill="none" stroke="black" d="M1194,-122.02C1194,-139.37 1194,-163 1194,-163 1194,-163 894.99,-163 894.99,-163"/>
<polygon fill="black" stroke="black" points="894.99,-159.5 884.99,-163 894.99,-166.5 894.99,-159.5"/>
</g>
<!-- FeedComponent -->
<g id="node3" class="node">
<title>FeedComponent</title>
<polygon fill="#ffffb3" stroke="black" points="1107.05,-122 998.95,-122 998.95,-86 1107.05,-86 1107.05,-122"/>
<text text-anchor="middle" x="1053" y="-99.8" font-family="Times,serif" font-size="14.00">FeedComponent</text>
</g>
<!-- FeedComponent&#45;&gt;AppModule -->
<g id="edge3" class="edge">
<title>FeedComponent&#45;&gt;AppModule</title>
<path fill="none" stroke="black" d="M1053,-122.24C1053,-137.57 1053,-157 1053,-157 1053,-157 894.74,-157 894.74,-157"/>
<polygon fill="black" stroke="black" points="894.74,-153.5 884.74,-157 894.74,-160.5 894.74,-153.5"/>
</g>
<!-- FirstPageComponent -->
<g id="node4" class="node">
<title>FirstPageComponent</title>
<polygon fill="#ffffb3" stroke="black" points="981.21,-122 846.79,-122 846.79,-86 981.21,-86 981.21,-122"/>
<text text-anchor="middle" x="914" y="-99.8" font-family="Times,serif" font-size="14.00">FirstPageComponent</text>
</g>
<!-- FirstPageComponent&#45;&gt;AppModule -->
<g id="edge4" class="edge">
<title>FirstPageComponent&#45;&gt;AppModule</title>
<path fill="none" stroke="black" d="M865.86,-122.11C865.86,-122.11 865.86,-140.99 865.86,-140.99"/>
<polygon fill="black" stroke="black" points="862.36,-140.99 865.86,-150.99 869.36,-140.99 862.36,-140.99"/>
</g>
<!-- LoginComponent -->
<g id="node5" class="node">
<title>LoginComponent</title>
<polygon fill="#ffffb3" stroke="black" points="829.28,-122 714.72,-122 714.72,-86 829.28,-86 829.28,-122"/>
<text text-anchor="middle" x="772" y="-99.8" font-family="Times,serif" font-size="14.00">LoginComponent</text>
</g>
<!-- LoginComponent&#45;&gt;AppModule -->
<g id="edge5" class="edge">
<title>LoginComponent&#45;&gt;AppModule</title>
<path fill="none" stroke="black" d="M815.28,-122.11C815.28,-122.11 815.28,-140.99 815.28,-140.99"/>
<polygon fill="black" stroke="black" points="811.78,-140.99 815.28,-150.99 818.78,-140.99 811.78,-140.99"/>
</g>
<!-- MainPageComponent -->
<g id="node6" class="node">
<title>MainPageComponent</title>
<polygon fill="#ffffb3" stroke="black" points="697.09,-122 558.91,-122 558.91,-86 697.09,-86 697.09,-122"/>
<text text-anchor="middle" x="628" y="-99.8" font-family="Times,serif" font-size="14.00">MainPageComponent</text>
</g>
<!-- MainPageComponent&#45;&gt;AppModule -->
<g id="edge6" class="edge">
<title>MainPageComponent&#45;&gt;AppModule</title>
<path fill="none" stroke="black" d="M628,-122.24C628,-137.57 628,-157 628,-157 628,-157 791.29,-157 791.29,-157"/>
<polygon fill="black" stroke="black" points="791.29,-160.5 801.29,-157 791.29,-153.5 791.29,-160.5"/>
</g>
<!-- PostComponent -->
<g id="node7" class="node">
<title>PostComponent</title>
<polygon fill="#ffffb3" stroke="black" points="540.95,-122 435.05,-122 435.05,-86 540.95,-86 540.95,-122"/>
<text text-anchor="middle" x="488" y="-99.8" font-family="Times,serif" font-size="14.00">PostComponent</text>
</g>
<!-- PostComponent&#45;&gt;AppModule -->
<g id="edge7" class="edge">
<title>PostComponent&#45;&gt;AppModule</title>
<path fill="none" stroke="black" d="M488,-122.02C488,-139.37 488,-163 488,-163 488,-163 791.23,-163 791.23,-163"/>
<polygon fill="black" stroke="black" points="791.23,-166.5 801.23,-163 791.23,-159.5 791.23,-166.5"/>
</g>
<!-- PosterComponent -->
<g id="node8" class="node">
<title>PosterComponent</title>
<polygon fill="#ffffb3" stroke="black" points="417.33,-122 300.67,-122 300.67,-86 417.33,-86 417.33,-122"/>
<text text-anchor="middle" x="359" y="-99.8" font-family="Times,serif" font-size="14.00">PosterComponent</text>
</g>
<!-- PosterComponent&#45;&gt;AppModule -->
<g id="edge8" class="edge">
<title>PosterComponent&#45;&gt;AppModule</title>
<path fill="none" stroke="black" d="M359,-122.11C359,-141.34 359,-169 359,-169 359,-169 791.32,-169 791.32,-169"/>
<polygon fill="black" stroke="black" points="791.32,-172.5 801.32,-169 791.32,-165.5 791.32,-172.5"/>
</g>
<!-- ProfileComponent -->
<g id="node9" class="node">
<title>ProfileComponent</title>
<polygon fill="#ffffb3" stroke="black" points="282.93,-122 163.07,-122 163.07,-86 282.93,-86 282.93,-122"/>
<text text-anchor="middle" x="223" y="-99.8" font-family="Times,serif" font-size="14.00">ProfileComponent</text>
</g>
<!-- ProfileComponent&#45;&gt;AppModule -->
<g id="edge9" class="edge">
<title>ProfileComponent&#45;&gt;AppModule</title>
<path fill="none" stroke="black" d="M223,-122.28C223,-143.32 223,-175 223,-175 223,-175 790.87,-175 790.87,-175"/>
<polygon fill="black" stroke="black" points="790.87,-178.5 800.87,-175 790.87,-171.5 790.87,-178.5"/>
</g>
<!-- SignupComponent -->
<g id="node10" class="node">
<title>SignupComponent</title>
<polygon fill="#ffffb3" stroke="black" points="145.51,-122 24.49,-122 24.49,-86 145.51,-86 145.51,-122"/>
<text text-anchor="middle" x="85" y="-99.8" font-family="Times,serif" font-size="14.00">SignupComponent</text>
</g>
<!-- SignupComponent&#45;&gt;AppModule -->
<g id="edge10" class="edge">
<title>SignupComponent&#45;&gt;AppModule</title>
<path fill="none" stroke="black" d="M85,-122.25C85,-145.02 85,-181 85,-181 85,-181 791.17,-181 791.17,-181"/>
<polygon fill="black" stroke="black" points="791.17,-184.5 801.17,-181 791.17,-177.5 791.17,-184.5"/>
</g>
<!-- AppComponent  -->
<g id="node13" class="node">
<title>AppComponent </title>
<polygon fill="#80b1d3" stroke="black" points="897.44,-252 788.56,-252 788.56,-216 897.44,-216 897.44,-252"/>
<text text-anchor="middle" x="843" y="-229.8" font-family="Times,serif" font-size="14.00">AppComponent </text>
</g>
<!-- AppModule&#45;&gt;AppComponent  -->
<g id="edge12" class="edge">
<title>AppModule&#45;&gt;AppComponent </title>
<path fill="none" stroke="black" stroke-dasharray="1,5" d="M843,-187.11C843,-187.11 843,-205.99 843,-205.99"/>
<polygon fill="black" stroke="black" points="839.5,-205.99 843,-215.99 846.5,-205.99 839.5,-205.99"/>
</g>
<!-- AppRoutingModule -->
<g id="node12" class="node">
<title>AppRoutingModule</title>
<polygon fill="#8dd3c7" stroke="black" points="1538.27,-122 1535.27,-126 1514.27,-126 1511.27,-122 1409.73,-122 1409.73,-86 1538.27,-86 1538.27,-122"/>
<text text-anchor="middle" x="1474" y="-99.8" font-family="Times,serif" font-size="14.00">AppRoutingModule</text>
</g>
<!-- AppRoutingModule&#45;&gt;AppModule -->
<g id="edge11" class="edge">
<title>AppRoutingModule&#45;&gt;AppModule</title>
<path fill="none" stroke="black" d="M1474,-122.28C1474,-143.32 1474,-175 1474,-175 1474,-175 894.89,-175 894.89,-175"/>
<polygon fill="black" stroke="black" points="894.89,-171.5 884.89,-175 894.89,-178.5 894.89,-171.5"/>
</g>
<!-- AppInterceptorService -->
<g id="node14" class="node">
<title>AppInterceptorService</title>
<ellipse fill="#fdb462" stroke="black" cx="1661" cy="-104" rx="98.95" ry="18"/>
<text text-anchor="middle" x="1661" y="-99.8" font-family="Times,serif" font-size="14.00">AppInterceptorService</text>
</g>
<!-- AppInterceptorService&#45;&gt;AppModule -->
<g id="edge13" class="edge">
<title>AppInterceptorService&#45;&gt;AppModule</title>
<path fill="none" stroke="black" d="M1661,-122.25C1661,-145.02 1661,-181 1661,-181 1661,-181 894.69,-181 894.69,-181"/>
<polygon fill="black" stroke="black" points="894.69,-177.5 884.69,-181 894.69,-184.5 894.69,-177.5"/>
</g>
</g>
</svg>
