<?xml version="1.0" encoding="UTF-8" standalone="no"?>
<!DOCTYPE svg PUBLIC "-//W3C//DTD SVG 1.1//EN"
 "http://www.w3.org/Graphics/SVG/1.1/DTD/svg11.dtd">
<!-- Generated by graphviz version 2.47.0 (20210316.0004)
 -->
<!-- Title: dependencies Pages: 1 -->
<svg width="1143pt" height="284pt"
 viewBox="0.00 0.00 1143.00 284.00" xmlns="http://www.w3.org/2000/svg" xmlns:xlink="http://www.w3.org/1999/xlink">
<g id="graph0" class="graph" transform="scale(1 1) rotate(0) translate(4 280)">
<title>dependencies</title>
<polygon fill="white" stroke="transparent" points="-4,4 -4,-280 1139,-280 1139,4 -4,4"/>
<text text-anchor="start" x="546.51" y="-42.4" font-family="sans-serif" font-weight="bold" font-size="14.00">Legend</text>
<polygon fill="#ffffb3" stroke="transparent" points="333.5,-10 333.5,-30 353.5,-30 353.5,-10 333.5,-10"/>
<text text-anchor="start" x="357.13" y="-15.4" font-family="sans-serif" font-size="14.00"> &#160;Declarations</text>
<polygon fill="#8dd3c7" stroke="transparent" points="446.5,-10 446.5,-30 466.5,-30 466.5,-10 446.5,-10"/>
<text text-anchor="start" x="470.23" y="-15.4" font-family="sans-serif" font-size="14.00"> &#160;Module</text>
<polygon fill="#80b1d3" stroke="transparent" points="532.5,-10 532.5,-30 552.5,-30 552.5,-10 532.5,-10"/>
<text text-anchor="start" x="556.28" y="-15.4" font-family="sans-serif" font-size="14.00"> &#160;Bootstrap</text>
<polygon fill="#fdb462" stroke="transparent" points="629.5,-10 629.5,-30 649.5,-30 649.5,-10 629.5,-10"/>
<text text-anchor="start" x="653.17" y="-15.4" font-family="sans-serif" font-size="14.00"> &#160;Providers</text>
<polygon fill="#fb8072" stroke="transparent" points="725.5,-10 725.5,-30 745.5,-30 745.5,-10 725.5,-10"/>
<text text-anchor="start" x="749.23" y="-15.4" font-family="sans-serif" font-size="14.00"> &#160;Exports</text>
<g id="clust1" class="cluster">
<title>cluster_AppModule</title>
<polygon fill="none" stroke="black" stroke-dasharray="1,5" points="8,-70 8,-268 1127,-268 1127,-70 8,-70"/>
</g>
<g id="clust10" class="cluster">
<title>cluster_AppModule_imports</title>
<polygon fill="none" stroke="black" points="975,-78 975,-130 1119,-130 1119,-78 975,-78"/>
</g>
<g id="clust12" class="cluster">
<title>cluster_AppModule_bootstrap</title>
<polygon fill="none" stroke="black" points="509,-208 509,-260 633,-260 633,-208 509,-208"/>
</g>
<g id="clust2" class="cluster">
<title>cluster_AppModule_declarations</title>
<polygon fill="none" stroke="black" points="16,-78 16,-130 967,-130 967,-78 16,-78"/>
</g>
<!-- AppComponent -->
<g id="node1" class="node">
<title>AppComponent</title>
<polygon fill="#ffffb3" stroke="black" points="958.94,-122 853.06,-122 853.06,-86 958.94,-86 958.94,-122"/>
<text text-anchor="middle" x="906" y="-99.8" font-family="Times,serif" font-size="14.00">AppComponent</text>
</g>
<!-- AppModule -->
<g id="node8" class="node">
<title>AppModule</title>
<polygon fill="#8dd3c7" stroke="black" points="612.66,-187 609.66,-191 588.66,-191 585.66,-187 529.34,-187 529.34,-151 612.66,-151 612.66,-187"/>
<text text-anchor="middle" x="571" y="-164.8" font-family="Times,serif" font-size="14.00">AppModule</text>
</g>
<!-- AppComponent&#45;&gt;AppModule -->
<g id="edge1" class="edge">
<title>AppComponent&#45;&gt;AppModule</title>
<path fill="none" stroke="black" d="M906,-122.11C906,-141.34 906,-169 906,-169 906,-169 622.75,-169 622.75,-169"/>
<polygon fill="black" stroke="black" points="622.75,-165.5 612.75,-169 622.75,-172.5 622.75,-165.5"/>
</g>
<!-- FeedComponent -->
<g id="node2" class="node">
<title>FeedComponent</title>
<polygon fill="#ffffb3" stroke="black" points="835.05,-122 726.95,-122 726.95,-86 835.05,-86 835.05,-122"/>
<text text-anchor="middle" x="781" y="-99.8" font-family="Times,serif" font-size="14.00">FeedComponent</text>
</g>
<!-- FeedComponent&#45;&gt;AppModule -->
<g id="edge2" class="edge">
<title>FeedComponent&#45;&gt;AppModule</title>
<path fill="none" stroke="black" d="M781,-122.03C781,-138.4 781,-160 781,-160 781,-160 622.74,-160 622.74,-160"/>
<polygon fill="black" stroke="black" points="622.74,-156.5 612.74,-160 622.74,-163.5 622.74,-156.5"/>
</g>
<!-- FirstPageComponent -->
<g id="node3" class="node">
<title>FirstPageComponent</title>
<polygon fill="#ffffb3" stroke="black" points="709.21,-122 574.79,-122 574.79,-86 709.21,-86 709.21,-122"/>
<text text-anchor="middle" x="642" y="-99.8" font-family="Times,serif" font-size="14.00">FirstPageComponent</text>
</g>
<!-- FirstPageComponent&#45;&gt;AppModule -->
<g id="edge3" class="edge">
<title>FirstPageComponent&#45;&gt;AppModule</title>
<path fill="none" stroke="black" d="M593.86,-122.11C593.86,-122.11 593.86,-140.99 593.86,-140.99"/>
<polygon fill="black" stroke="black" points="590.36,-140.99 593.86,-150.99 597.36,-140.99 590.36,-140.99"/>
</g>
<!-- LoginComponent -->
<g id="node4" class="node">
<title>LoginComponent</title>
<polygon fill="#ffffb3" stroke="black" points="557.28,-122 442.72,-122 442.72,-86 557.28,-86 557.28,-122"/>
<text text-anchor="middle" x="500" y="-99.8" font-family="Times,serif" font-size="14.00">LoginComponent</text>
</g>
<!-- LoginComponent&#45;&gt;AppModule -->
<g id="edge4" class="edge">
<title>LoginComponent&#45;&gt;AppModule</title>
<path fill="none" stroke="black" d="M543.28,-122.11C543.28,-122.11 543.28,-140.99 543.28,-140.99"/>
<polygon fill="black" stroke="black" points="539.78,-140.99 543.28,-150.99 546.78,-140.99 539.78,-140.99"/>
</g>
<!-- MainPageComponent -->
<g id="node5" class="node">
<title>MainPageComponent</title>
<polygon fill="#ffffb3" stroke="black" points="425.09,-122 286.91,-122 286.91,-86 425.09,-86 425.09,-122"/>
<text text-anchor="middle" x="356" y="-99.8" font-family="Times,serif" font-size="14.00">MainPageComponent</text>
</g>
<!-- MainPageComponent&#45;&gt;AppModule -->
<g id="edge5" class="edge">
<title>MainPageComponent&#45;&gt;AppModule</title>
<path fill="none" stroke="black" d="M356,-122.03C356,-138.4 356,-160 356,-160 356,-160 519.29,-160 519.29,-160"/>
<polygon fill="black" stroke="black" points="519.29,-163.5 529.29,-160 519.29,-156.5 519.29,-163.5"/>
</g>
<!-- PostComponent -->
<g id="node6" class="node">
<title>PostComponent</title>
<polygon fill="#ffffb3" stroke="black" points="268.95,-122 163.05,-122 163.05,-86 268.95,-86 268.95,-122"/>
<text text-anchor="middle" x="216" y="-99.8" font-family="Times,serif" font-size="14.00">PostComponent</text>
</g>
<!-- PostComponent&#45;&gt;AppModule -->
<g id="edge6" class="edge">
<title>PostComponent&#45;&gt;AppModule</title>
<path fill="none" stroke="black" d="M216,-122.11C216,-141.34 216,-169 216,-169 216,-169 519.23,-169 519.23,-169"/>
<polygon fill="black" stroke="black" points="519.23,-172.5 529.23,-169 519.23,-165.5 519.23,-172.5"/>
</g>
<!-- SignupComponent -->
<g id="node7" class="node">
<title>SignupComponent</title>
<polygon fill="#ffffb3" stroke="black" points="145.51,-122 24.49,-122 24.49,-86 145.51,-86 145.51,-122"/>
<text text-anchor="middle" x="85" y="-99.8" font-family="Times,serif" font-size="14.00">SignupComponent</text>
</g>
<!-- SignupComponent&#45;&gt;AppModule -->
<g id="edge7" class="edge">
<title>SignupComponent&#45;&gt;AppModule</title>
<path fill="none" stroke="black" d="M85,-122.29C85,-144.21 85,-178 85,-178 85,-178 519.14,-178 519.14,-178"/>
<polygon fill="black" stroke="black" points="519.14,-181.5 529.14,-178 519.14,-174.5 519.14,-181.5"/>
</g>
<!-- AppComponent  -->
<g id="node10" class="node">
<title>AppComponent </title>
<polygon fill="#80b1d3" stroke="black" points="625.44,-252 516.56,-252 516.56,-216 625.44,-216 625.44,-252"/>
<text text-anchor="middle" x="571" y="-229.8" font-family="Times,serif" font-size="14.00">AppComponent </text>
</g>
<!-- AppModule&#45;&gt;AppComponent  -->
<g id="edge9" class="edge">
<title>AppModule&#45;&gt;AppComponent </title>
<path fill="none" stroke="black" stroke-dasharray="1,5" d="M571,-187.11C571,-187.11 571,-205.99 571,-205.99"/>
<polygon fill="black" stroke="black" points="567.5,-205.99 571,-215.99 574.5,-205.99 567.5,-205.99"/>
</g>
<!-- AppRoutingModule -->
<g id="node9" class="node">
<title>AppRoutingModule</title>
<polygon fill="#8dd3c7" stroke="black" points="1111.27,-122 1108.27,-126 1087.27,-126 1084.27,-122 982.73,-122 982.73,-86 1111.27,-86 1111.27,-122"/>
<text text-anchor="middle" x="1047" y="-99.8" font-family="Times,serif" font-size="14.00">AppRoutingModule</text>
</g>
<!-- AppRoutingModule&#45;&gt;AppModule -->
<g id="edge8" class="edge">
<title>AppRoutingModule&#45;&gt;AppModule</title>
<path fill="none" stroke="black" d="M1047,-122.29C1047,-144.21 1047,-178 1047,-178 1047,-178 622.82,-178 622.82,-178"/>
<polygon fill="black" stroke="black" points="622.82,-174.5 612.82,-178 622.82,-181.5 622.82,-174.5"/>
</g>
</g>
</svg>
