<?xml version="1.0" encoding="UTF-8" standalone="no"?>
<!DOCTYPE svg PUBLIC "-//W3C//DTD SVG 1.1//EN"
 "http://www.w3.org/Graphics/SVG/1.1/DTD/svg11.dtd">
<!-- Generated by graphviz version 2.47.0 (20210316.0004)
 -->
<!-- Title: dependencies Pages: 1 -->
<svg width="2560pt" height="284pt"
 viewBox="0.00 0.00 2560.00 284.00" xmlns="http://www.w3.org/2000/svg" xmlns:xlink="http://www.w3.org/1999/xlink">
<g id="graph0" class="graph" transform="scale(1 1) rotate(0) translate(4 280)">
<title>dependencies</title>
<polygon fill="white" stroke="transparent" points="-4,4 -4,-280 2556,-280 2556,4 -4,4"/>
<text text-anchor="start" x="1255.01" y="-42.4" font-family="sans-serif" font-weight="bold" font-size="14.00">Legend</text>
<polygon fill="#ffffb3" stroke="transparent" points="1042,-10 1042,-30 1062,-30 1062,-10 1042,-10"/>
<text text-anchor="start" x="1065.63" y="-15.4" font-family="sans-serif" font-size="14.00"> &#160;Declarations</text>
<polygon fill="#8dd3c7" stroke="transparent" points="1155,-10 1155,-30 1175,-30 1175,-10 1155,-10"/>
<text text-anchor="start" x="1178.73" y="-15.4" font-family="sans-serif" font-size="14.00"> &#160;Module</text>
<polygon fill="#80b1d3" stroke="transparent" points="1241,-10 1241,-30 1261,-30 1261,-10 1241,-10"/>
<text text-anchor="start" x="1264.78" y="-15.4" font-family="sans-serif" font-size="14.00"> &#160;Bootstrap</text>
<polygon fill="#fdb462" stroke="transparent" points="1338,-10 1338,-30 1358,-30 1358,-10 1338,-10"/>
<text text-anchor="start" x="1361.67" y="-15.4" font-family="sans-serif" font-size="14.00"> &#160;Providers</text>
<polygon fill="#fb8072" stroke="transparent" points="1434,-10 1434,-30 1454,-30 1454,-10 1434,-10"/>
<text text-anchor="start" x="1457.73" y="-15.4" font-family="sans-serif" font-size="14.00"> &#160;Exports</text>
<g id="clust1" class="cluster">
<title>cluster_AppModule</title>
<polygon fill="none" stroke="black" stroke-dasharray="1,5" points="8,-70 8,-268 2544,-268 2544,-70 8,-70"/>
</g>
<g id="clust2" class="cluster">
<title>cluster_AppModule_declarations</title>
<polygon fill="none" stroke="black" points="1158,-78 1158,-130 2536,-130 2536,-78 1158,-78"/>
</g>
<g id="clust16" class="cluster">
<title>cluster_AppModule_providers</title>
<polygon fill="none" stroke="black" points="936,-78 936,-130 1150,-130 1150,-78 936,-78"/>
</g>
<g id="clust13" class="cluster">
<title>cluster_AppModule_imports</title>
<polygon fill="none" stroke="black" points="16,-78 16,-130 928,-130 928,-78 16,-78"/>
</g>
<g id="clust15" class="cluster">
<title>cluster_AppModule_bootstrap</title>
<polygon fill="none" stroke="black" points="1237,-208 1237,-260 1361,-260 1361,-208 1237,-208"/>
</g>
<!-- AppComponent -->
<g id="node1" class="node">
<title>AppComponent</title>
<polygon fill="#ffffb3" stroke="black" points="2527.94,-122 2422.06,-122 2422.06,-86 2527.94,-86 2527.94,-122"/>
<text text-anchor="middle" x="2475" y="-99.8" font-family="Times,serif" font-size="14.00">AppComponent</text>
</g>
<!-- AppModule -->
<g id="node11" class="node">
<title>AppModule</title>
<polygon fill="#8dd3c7" stroke="black" points="1340.66,-187 1337.66,-191 1316.66,-191 1313.66,-187 1257.34,-187 1257.34,-151 1340.66,-151 1340.66,-187"/>
<text text-anchor="middle" x="1299" y="-164.8" font-family="Times,serif" font-size="14.00">AppModule</text>
</g>
<!-- AppComponent&#45;&gt;AppModule -->
<g id="edge1" class="edge">
<title>AppComponent&#45;&gt;AppModule</title>
<path fill="none" stroke="black" d="M2475,-122.32C2475,-145.66 2475,-183 2475,-183 2475,-183 1350.85,-183 1350.85,-183"/>
<polygon fill="black" stroke="black" points="1350.85,-179.5 1340.85,-183 1350.85,-186.5 1350.85,-179.5"/>
</g>
<!-- LoginComponent -->
<g id="node2" class="node">
<title>LoginComponent</title>
<polygon fill="#ffffb3" stroke="black" points="2404.28,-122 2289.72,-122 2289.72,-86 2404.28,-86 2404.28,-122"/>
<text text-anchor="middle" x="2347" y="-99.8" font-family="Times,serif" font-size="14.00">LoginComponent</text>
</g>
<!-- LoginComponent&#45;&gt;AppModule -->
<g id="edge2" class="edge">
<title>LoginComponent&#45;&gt;AppModule</title>
<path fill="none" stroke="black" d="M2347,-122.16C2347,-144.35 2347,-179 2347,-179 2347,-179 1350.73,-179 1350.73,-179"/>
<polygon fill="black" stroke="black" points="1350.73,-175.5 1340.73,-179 1350.73,-182.5 1350.73,-175.5"/>
</g>
<!-- SignupComponent -->
<g id="node3" class="node">
<title>SignupComponent</title>
<polygon fill="#ffffb3" stroke="black" points="2271.51,-122 2150.49,-122 2150.49,-86 2271.51,-86 2271.51,-122"/>
<text text-anchor="middle" x="2211" y="-99.8" font-family="Times,serif" font-size="14.00">SignupComponent</text>
</g>
<!-- SignupComponent&#45;&gt;AppModule -->
<g id="edge3" class="edge">
<title>SignupComponent&#45;&gt;AppModule</title>
<path fill="none" stroke="black" d="M2211,-122.28C2211,-143.32 2211,-175 2211,-175 2211,-175 1350.86,-175 1350.86,-175"/>
<polygon fill="black" stroke="black" points="1350.86,-171.5 1340.86,-175 1350.86,-178.5 1350.86,-171.5"/>
</g>
<!-- FeedComponent -->
<g id="node4" class="node">
<title>FeedComponent</title>
<polygon fill="#ffffb3" stroke="black" points="2132.05,-122 2023.95,-122 2023.95,-86 2132.05,-86 2132.05,-122"/>
<text text-anchor="middle" x="2078" y="-99.8" font-family="Times,serif" font-size="14.00">FeedComponent</text>
</g>
<!-- FeedComponent&#45;&gt;AppModule -->
<g id="edge4" class="edge">
<title>FeedComponent&#45;&gt;AppModule</title>
<path fill="none" stroke="black" d="M2078,-122.31C2078,-142.15 2078,-171 2078,-171 2078,-171 1350.88,-171 1350.88,-171"/>
<polygon fill="black" stroke="black" points="1350.88,-167.5 1340.88,-171 1350.88,-174.5 1350.88,-167.5"/>
</g>
<!-- PostComponent -->
<g id="node5" class="node">
<title>PostComponent</title>
<polygon fill="#ffffb3" stroke="black" points="2005.95,-122 1900.05,-122 1900.05,-86 2005.95,-86 2005.95,-122"/>
<text text-anchor="middle" x="1953" y="-99.8" font-family="Times,serif" font-size="14.00">PostComponent</text>
</g>
<!-- PostComponent&#45;&gt;AppModule -->
<g id="edge5" class="edge">
<title>PostComponent&#45;&gt;AppModule</title>
<path fill="none" stroke="black" d="M1953,-122.22C1953,-140.83 1953,-167 1953,-167 1953,-167 1350.91,-167 1350.91,-167"/>
<polygon fill="black" stroke="black" points="1350.91,-163.5 1340.91,-167 1350.91,-170.5 1350.91,-163.5"/>
</g>
<!-- MainPageComponent -->
<g id="node6" class="node">
<title>MainPageComponent</title>
<polygon fill="#ffffb3" stroke="black" points="1882.09,-122 1743.91,-122 1743.91,-86 1882.09,-86 1882.09,-122"/>
<text text-anchor="middle" x="1813" y="-99.8" font-family="Times,serif" font-size="14.00">MainPageComponent</text>
</g>
<!-- MainPageComponent&#45;&gt;AppModule -->
<g id="edge6" class="edge">
<title>MainPageComponent&#45;&gt;AppModule</title>
<path fill="none" stroke="black" d="M1813,-122.02C1813,-139.37 1813,-163 1813,-163 1813,-163 1351.06,-163 1351.06,-163"/>
<polygon fill="black" stroke="black" points="1351.06,-159.5 1341.06,-163 1351.06,-166.5 1351.06,-159.5"/>
</g>
<!-- PosterComponent -->
<g id="node7" class="node">
<title>PosterComponent</title>
<polygon fill="#ffffb3" stroke="black" points="1726.33,-122 1609.67,-122 1609.67,-86 1726.33,-86 1726.33,-122"/>
<text text-anchor="middle" x="1668" y="-99.8" font-family="Times,serif" font-size="14.00">PosterComponent</text>
</g>
<!-- PosterComponent&#45;&gt;AppModule -->
<g id="edge7" class="edge">
<title>PosterComponent&#45;&gt;AppModule</title>
<path fill="none" stroke="black" d="M1668,-122.01C1668,-138.05 1668,-159 1668,-159 1668,-159 1350.97,-159 1350.97,-159"/>
<polygon fill="black" stroke="black" points="1350.97,-155.5 1340.97,-159 1350.97,-162.5 1350.97,-155.5"/>
</g>
<!-- FirstPageComponent -->
<g id="node8" class="node">
<title>FirstPageComponent</title>
<polygon fill="#ffffb3" stroke="black" points="1592.21,-122 1457.79,-122 1457.79,-86 1592.21,-86 1592.21,-122"/>
<text text-anchor="middle" x="1525" y="-99.8" font-family="Times,serif" font-size="14.00">FirstPageComponent</text>
</g>
<!-- FirstPageComponent&#45;&gt;AppModule -->
<g id="edge8" class="edge">
<title>FirstPageComponent&#45;&gt;AppModule</title>
<path fill="none" stroke="black" d="M1525,-122.12C1525,-136.78 1525,-155 1525,-155 1525,-155 1350.72,-155 1350.72,-155"/>
<polygon fill="black" stroke="black" points="1350.72,-151.5 1340.72,-155 1350.72,-158.5 1350.72,-151.5"/>
</g>
<!-- CommentComponent -->
<g id="node9" class="node">
<title>CommentComponent</title>
<polygon fill="#ffffb3" stroke="black" points="1440.06,-122 1303.94,-122 1303.94,-86 1440.06,-86 1440.06,-122"/>
<text text-anchor="middle" x="1372" y="-99.8" font-family="Times,serif" font-size="14.00">CommentComponent</text>
</g>
<!-- CommentComponent&#45;&gt;AppModule -->
<g id="edge9" class="edge">
<title>CommentComponent&#45;&gt;AppModule</title>
<path fill="none" stroke="black" d="M1322.28,-122.11C1322.28,-122.11 1322.28,-140.99 1322.28,-140.99"/>
<polygon fill="black" stroke="black" points="1318.78,-140.99 1322.28,-150.99 1325.78,-140.99 1318.78,-140.99"/>
</g>
<!-- ProfileComponent -->
<g id="node10" class="node">
<title>ProfileComponent</title>
<polygon fill="#ffffb3" stroke="black" points="1285.93,-122 1166.07,-122 1166.07,-86 1285.93,-86 1285.93,-122"/>
<text text-anchor="middle" x="1226" y="-99.8" font-family="Times,serif" font-size="14.00">ProfileComponent</text>
</g>
<!-- ProfileComponent&#45;&gt;AppModule -->
<g id="edge10" class="edge">
<title>ProfileComponent&#45;&gt;AppModule</title>
<path fill="none" stroke="black" d="M1271.44,-122.11C1271.44,-122.11 1271.44,-140.99 1271.44,-140.99"/>
<polygon fill="black" stroke="black" points="1267.94,-140.99 1271.44,-150.99 1274.94,-140.99 1267.94,-140.99"/>
</g>
<!-- AppComponent  -->
<g id="node19" class="node">
<title>AppComponent </title>
<polygon fill="#80b1d3" stroke="black" points="1353.44,-252 1244.56,-252 1244.56,-216 1353.44,-216 1353.44,-252"/>
<text text-anchor="middle" x="1299" y="-229.8" font-family="Times,serif" font-size="14.00">AppComponent </text>
</g>
<!-- AppModule&#45;&gt;AppComponent  -->
<g id="edge18" class="edge">
<title>AppModule&#45;&gt;AppComponent </title>
<path fill="none" stroke="black" stroke-dasharray="1,5" d="M1299,-187.11C1299,-187.11 1299,-205.99 1299,-205.99"/>
<polygon fill="black" stroke="black" points="1295.5,-205.99 1299,-215.99 1302.5,-205.99 1295.5,-205.99"/>
</g>
<!-- BrowserModule -->
<g id="node12" class="node">
<title>BrowserModule</title>
<polygon fill="#8dd3c7" stroke="black" points="920.47,-122 917.47,-126 896.47,-126 893.47,-122 813.53,-122 813.53,-86 920.47,-86 920.47,-122"/>
<text text-anchor="middle" x="867" y="-99.8" font-family="Times,serif" font-size="14.00">BrowserModule</text>
</g>
<!-- BrowserModule&#45;&gt;AppModule -->
<g id="edge11" class="edge">
<title>BrowserModule&#45;&gt;AppModule</title>
<path fill="none" stroke="black" d="M867,-122.01C867,-138.05 867,-159 867,-159 867,-159 1247.19,-159 1247.19,-159"/>
<polygon fill="black" stroke="black" points="1247.19,-162.5 1257.19,-159 1247.19,-155.5 1247.19,-162.5"/>
</g>
<!-- AppRoutingModule -->
<g id="node13" class="node">
<title>AppRoutingModule</title>
<polygon fill="#8dd3c7" stroke="black" points="795.27,-122 792.27,-126 771.27,-126 768.27,-122 666.73,-122 666.73,-86 795.27,-86 795.27,-122"/>
<text text-anchor="middle" x="731" y="-99.8" font-family="Times,serif" font-size="14.00">AppRoutingModule</text>
</g>
<!-- AppRoutingModule&#45;&gt;AppModule -->
<g id="edge12" class="edge">
<title>AppRoutingModule&#45;&gt;AppModule</title>
<path fill="none" stroke="black" d="M731,-122.02C731,-139.37 731,-163 731,-163 731,-163 1247.23,-163 1247.23,-163"/>
<polygon fill="black" stroke="black" points="1247.23,-166.5 1257.23,-163 1247.23,-159.5 1247.23,-166.5"/>
</g>
<!-- ReactiveFormsModule -->
<g id="node14" class="node">
<title>ReactiveFormsModule</title>
<polygon fill="#8dd3c7" stroke="black" points="648.3,-122 645.3,-126 624.3,-126 621.3,-122 503.7,-122 503.7,-86 648.3,-86 648.3,-122"/>
<text text-anchor="middle" x="576" y="-99.8" font-family="Times,serif" font-size="14.00">ReactiveFormsModule</text>
</g>
<!-- ReactiveFormsModule&#45;&gt;AppModule -->
<g id="edge13" class="edge">
<title>ReactiveFormsModule&#45;&gt;AppModule</title>
<path fill="none" stroke="black" d="M576,-122.22C576,-140.83 576,-167 576,-167 576,-167 1247.27,-167 1247.27,-167"/>
<polygon fill="black" stroke="black" points="1247.27,-170.5 1257.27,-167 1247.27,-163.5 1247.27,-170.5"/>
</g>
<!-- NgbModule -->
<g id="node15" class="node">
<title>NgbModule</title>
<polygon fill="#8dd3c7" stroke="black" points="485.66,-122 482.66,-126 461.66,-126 458.66,-122 402.34,-122 402.34,-86 485.66,-86 485.66,-122"/>
<text text-anchor="middle" x="444" y="-99.8" font-family="Times,serif" font-size="14.00">NgbModule</text>
</g>
<!-- NgbModule&#45;&gt;AppModule -->
<g id="edge14" class="edge">
<title>NgbModule&#45;&gt;AppModule</title>
<path fill="none" stroke="black" d="M444,-122.31C444,-142.15 444,-171 444,-171 444,-171 1247.18,-171 1247.18,-171"/>
<polygon fill="black" stroke="black" points="1247.18,-174.5 1257.18,-171 1247.18,-167.5 1247.18,-174.5"/>
</g>
<!-- FormsModule -->
<g id="node16" class="node">
<title>FormsModule</title>
<polygon fill="#8dd3c7" stroke="black" points="384.83,-122 381.83,-126 360.83,-126 357.83,-122 289.17,-122 289.17,-86 384.83,-86 384.83,-122"/>
<text text-anchor="middle" x="337" y="-99.8" font-family="Times,serif" font-size="14.00">FormsModule</text>
</g>
<!-- FormsModule&#45;&gt;AppModule -->
<g id="edge15" class="edge">
<title>FormsModule&#45;&gt;AppModule</title>
<path fill="none" stroke="black" d="M337,-122.28C337,-143.32 337,-175 337,-175 337,-175 1247.05,-175 1247.05,-175"/>
<polygon fill="black" stroke="black" points="1247.05,-178.5 1257.05,-175 1247.05,-171.5 1247.05,-178.5"/>
</g>
<!-- CommonModule -->
<g id="node17" class="node">
<title>CommonModule</title>
<polygon fill="#8dd3c7" stroke="black" points="271.67,-122 268.67,-126 247.67,-126 244.67,-122 160.33,-122 160.33,-86 271.67,-86 271.67,-122"/>
<text text-anchor="middle" x="216" y="-99.8" font-family="Times,serif" font-size="14.00">CommonModule</text>
</g>
<!-- CommonModule&#45;&gt;AppModule -->
<g id="edge16" class="edge">
<title>CommonModule&#45;&gt;AppModule</title>
<path fill="none" stroke="black" d="M216,-122.16C216,-144.35 216,-179 216,-179 216,-179 1247.21,-179 1247.21,-179"/>
<polygon fill="black" stroke="black" points="1247.21,-182.5 1257.21,-179 1247.21,-175.5 1247.21,-182.5"/>
</g>
<!-- HttpClientModule -->
<g id="node18" class="node">
<title>HttpClientModule</title>
<polygon fill="#8dd3c7" stroke="black" points="142.16,-122 139.16,-126 118.16,-126 115.16,-122 23.84,-122 23.84,-86 142.16,-86 142.16,-122"/>
<text text-anchor="middle" x="83" y="-99.8" font-family="Times,serif" font-size="14.00">HttpClientModule</text>
</g>
<!-- HttpClientModule&#45;&gt;AppModule -->
<g id="edge17" class="edge">
<title>HttpClientModule&#45;&gt;AppModule</title>
<path fill="none" stroke="black" d="M83,-122.32C83,-145.66 83,-183 83,-183 83,-183 1247.14,-183 1247.14,-183"/>
<polygon fill="black" stroke="black" points="1247.14,-186.5 1257.14,-183 1247.14,-179.5 1247.14,-186.5"/>
</g>
<!-- AppInterceptorService -->
<g id="node20" class="node">
<title>AppInterceptorService</title>
<ellipse fill="#fdb462" stroke="black" cx="1043" cy="-104" rx="98.95" ry="18"/>
<text text-anchor="middle" x="1043" y="-99.8" font-family="Times,serif" font-size="14.00">AppInterceptorService</text>
</g>
<!-- AppInterceptorService&#45;&gt;AppModule -->
<g id="edge19" class="edge">
<title>AppInterceptorService&#45;&gt;AppModule</title>
<path fill="none" stroke="black" d="M1043,-122.12C1043,-136.78 1043,-155 1043,-155 1043,-155 1247.3,-155 1247.3,-155"/>
<polygon fill="black" stroke="black" points="1247.3,-158.5 1257.3,-155 1247.3,-151.5 1247.3,-158.5"/>
</g>
</g>
</svg>
