<?xml version="1.0" encoding="UTF-8" standalone="no"?>
<!DOCTYPE svg PUBLIC "-//W3C//DTD SVG 1.1//EN"
 "http://www.w3.org/Graphics/SVG/1.1/DTD/svg11.dtd">
<!-- Generated by graphviz version 2.47.0 (20210316.0004)
 -->
<!-- Title: dependencies Pages: 1 -->
<svg width="1278pt" height="284pt"
 viewBox="0.00 0.00 1278.00 284.00" xmlns="http://www.w3.org/2000/svg" xmlns:xlink="http://www.w3.org/1999/xlink">
<g id="graph0" class="graph" transform="scale(1 1) rotate(0) translate(4 280)">
<title>dependencies</title>
<polygon fill="white" stroke="transparent" points="-4,4 -4,-280 1274,-280 1274,4 -4,4"/>
<text text-anchor="start" x="614.01" y="-42.4" font-family="sans-serif" font-weight="bold" font-size="14.00">Legend</text>
<polygon fill="#ffffb3" stroke="transparent" points="401,-10 401,-30 421,-30 421,-10 401,-10"/>
<text text-anchor="start" x="424.63" y="-15.4" font-family="sans-serif" font-size="14.00"> &#160;Declarations</text>
<polygon fill="#8dd3c7" stroke="transparent" points="514,-10 514,-30 534,-30 534,-10 514,-10"/>
<text text-anchor="start" x="537.73" y="-15.4" font-family="sans-serif" font-size="14.00"> &#160;Module</text>
<polygon fill="#80b1d3" stroke="transparent" points="600,-10 600,-30 620,-30 620,-10 600,-10"/>
<text text-anchor="start" x="623.78" y="-15.4" font-family="sans-serif" font-size="14.00"> &#160;Bootstrap</text>
<polygon fill="#fdb462" stroke="transparent" points="697,-10 697,-30 717,-30 717,-10 697,-10"/>
<text text-anchor="start" x="720.67" y="-15.4" font-family="sans-serif" font-size="14.00"> &#160;Providers</text>
<polygon fill="#fb8072" stroke="transparent" points="793,-10 793,-30 813,-30 813,-10 793,-10"/>
<text text-anchor="start" x="816.73" y="-15.4" font-family="sans-serif" font-size="14.00"> &#160;Exports</text>
<g id="clust1" class="cluster">
<title>cluster_AppModule</title>
<polygon fill="none" stroke="black" stroke-dasharray="1,5" points="8,-70 8,-268 1262,-268 1262,-70 8,-70"/>
</g>
<g id="clust13" class="cluster">
<title>cluster_AppModule_bootstrap</title>
<polygon fill="none" stroke="black" points="573,-208 573,-260 697,-260 697,-208 573,-208"/>
</g>
<g id="clust11" class="cluster">
<title>cluster_AppModule_imports</title>
<polygon fill="none" stroke="black" points="1110,-78 1110,-130 1254,-130 1254,-78 1110,-78"/>
</g>
<g id="clust2" class="cluster">
<title>cluster_AppModule_declarations</title>
<polygon fill="none" stroke="black" points="16,-78 16,-130 1102,-130 1102,-78 16,-78"/>
</g>
<!-- AppComponent -->
<g id="node1" class="node">
<title>AppComponent</title>
<polygon fill="#ffffb3" stroke="black" points="1093.94,-122 988.06,-122 988.06,-86 1093.94,-86 1093.94,-122"/>
<text text-anchor="middle" x="1041" y="-99.8" font-family="Times,serif" font-size="14.00">AppComponent</text>
</g>
<!-- AppModule -->
<g id="node9" class="node">
<title>AppModule</title>
<polygon fill="#8dd3c7" stroke="black" points="676.66,-187 673.66,-191 652.66,-191 649.66,-187 593.34,-187 593.34,-151 676.66,-151 676.66,-187"/>
<text text-anchor="middle" x="635" y="-164.8" font-family="Times,serif" font-size="14.00">AppModule</text>
</g>
<!-- AppComponent&#45;&gt;AppModule -->
<g id="edge1" class="edge">
<title>AppComponent&#45;&gt;AppModule</title>
<path fill="none" stroke="black" d="M1041,-122.13C1041,-142.57 1041,-173 1041,-173 1041,-173 686.92,-173 686.92,-173"/>
<polygon fill="black" stroke="black" points="686.92,-169.5 676.92,-173 686.92,-176.5 686.92,-169.5"/>
</g>
<!-- FeedComponent -->
<g id="node2" class="node">
<title>FeedComponent</title>
<polygon fill="#ffffb3" stroke="black" points="970.05,-122 861.95,-122 861.95,-86 970.05,-86 970.05,-122"/>
<text text-anchor="middle" x="916" y="-99.8" font-family="Times,serif" font-size="14.00">FeedComponent</text>
</g>
<!-- FeedComponent&#45;&gt;AppModule -->
<g id="edge2" class="edge">
<title>FeedComponent&#45;&gt;AppModule</title>
<path fill="none" stroke="black" d="M916,-122.27C916,-140.56 916,-166 916,-166 916,-166 686.77,-166 686.77,-166"/>
<polygon fill="black" stroke="black" points="686.77,-162.5 676.77,-166 686.77,-169.5 686.77,-162.5"/>
</g>
<!-- FirstPageComponent -->
<g id="node3" class="node">
<title>FirstPageComponent</title>
<polygon fill="#ffffb3" stroke="black" points="844.21,-122 709.79,-122 709.79,-86 844.21,-86 844.21,-122"/>
<text text-anchor="middle" x="777" y="-99.8" font-family="Times,serif" font-size="14.00">FirstPageComponent</text>
</g>
<!-- FirstPageComponent&#45;&gt;AppModule -->
<g id="edge3" class="edge">
<title>FirstPageComponent&#45;&gt;AppModule</title>
<path fill="none" stroke="black" d="M777,-122.01C777,-138.05 777,-159 777,-159 777,-159 686.84,-159 686.84,-159"/>
<polygon fill="black" stroke="black" points="686.84,-155.5 676.84,-159 686.84,-162.5 686.84,-155.5"/>
</g>
<!-- LoginComponent -->
<g id="node4" class="node">
<title>LoginComponent</title>
<polygon fill="#ffffb3" stroke="black" points="692.28,-122 577.72,-122 577.72,-86 692.28,-86 692.28,-122"/>
<text text-anchor="middle" x="635" y="-99.8" font-family="Times,serif" font-size="14.00">LoginComponent</text>
</g>
<!-- LoginComponent&#45;&gt;AppModule -->
<g id="edge4" class="edge">
<title>LoginComponent&#45;&gt;AppModule</title>
<path fill="none" stroke="black" d="M635,-122.11C635,-122.11 635,-140.99 635,-140.99"/>
<polygon fill="black" stroke="black" points="631.5,-140.99 635,-150.99 638.5,-140.99 631.5,-140.99"/>
</g>
<!-- MainPageComponent -->
<g id="node5" class="node">
<title>MainPageComponent</title>
<polygon fill="#ffffb3" stroke="black" points="560.09,-122 421.91,-122 421.91,-86 560.09,-86 560.09,-122"/>
<text text-anchor="middle" x="491" y="-99.8" font-family="Times,serif" font-size="14.00">MainPageComponent</text>
</g>
<!-- MainPageComponent&#45;&gt;AppModule -->
<g id="edge5" class="edge">
<title>MainPageComponent&#45;&gt;AppModule</title>
<path fill="none" stroke="black" d="M491,-122.01C491,-138.05 491,-159 491,-159 491,-159 582.96,-159 582.96,-159"/>
<polygon fill="black" stroke="black" points="582.96,-162.5 592.96,-159 582.96,-155.5 582.96,-162.5"/>
</g>
<!-- PostComponent -->
<g id="node6" class="node">
<title>PostComponent</title>
<polygon fill="#ffffb3" stroke="black" points="403.95,-122 298.05,-122 298.05,-86 403.95,-86 403.95,-122"/>
<text text-anchor="middle" x="351" y="-99.8" font-family="Times,serif" font-size="14.00">PostComponent</text>
</g>
<!-- PostComponent&#45;&gt;AppModule -->
<g id="edge6" class="edge">
<title>PostComponent&#45;&gt;AppModule</title>
<path fill="none" stroke="black" d="M351,-122.27C351,-140.56 351,-166 351,-166 351,-166 583.09,-166 583.09,-166"/>
<polygon fill="black" stroke="black" points="583.09,-169.5 593.09,-166 583.09,-162.5 583.09,-169.5"/>
</g>
<!-- PosterComponent -->
<g id="node7" class="node">
<title>PosterComponent</title>
<polygon fill="#ffffb3" stroke="black" points="280.33,-122 163.67,-122 163.67,-86 280.33,-86 280.33,-122"/>
<text text-anchor="middle" x="222" y="-99.8" font-family="Times,serif" font-size="14.00">PosterComponent</text>
</g>
<!-- PosterComponent&#45;&gt;AppModule -->
<g id="edge7" class="edge">
<title>PosterComponent&#45;&gt;AppModule</title>
<path fill="none" stroke="black" d="M222,-122.13C222,-142.57 222,-173 222,-173 222,-173 583.13,-173 583.13,-173"/>
<polygon fill="black" stroke="black" points="583.13,-176.5 593.13,-173 583.13,-169.5 583.13,-176.5"/>
</g>
<!-- SignupComponent -->
<g id="node8" class="node">
<title>SignupComponent</title>
<polygon fill="#ffffb3" stroke="black" points="145.51,-122 24.49,-122 24.49,-86 145.51,-86 145.51,-122"/>
<text text-anchor="middle" x="85" y="-99.8" font-family="Times,serif" font-size="14.00">SignupComponent</text>
</g>
<!-- SignupComponent&#45;&gt;AppModule -->
<g id="edge8" class="edge">
<title>SignupComponent&#45;&gt;AppModule</title>
<path fill="none" stroke="black" d="M85,-122.01C85,-144.49 85,-180 85,-180 85,-180 583.21,-180 583.21,-180"/>
<polygon fill="black" stroke="black" points="583.21,-183.5 593.21,-180 583.21,-176.5 583.21,-183.5"/>
</g>
<!-- AppComponent  -->
<g id="node11" class="node">
<title>AppComponent </title>
<polygon fill="#80b1d3" stroke="black" points="689.44,-252 580.56,-252 580.56,-216 689.44,-216 689.44,-252"/>
<text text-anchor="middle" x="635" y="-229.8" font-family="Times,serif" font-size="14.00">AppComponent </text>
</g>
<!-- AppModule&#45;&gt;AppComponent  -->
<g id="edge10" class="edge">
<title>AppModule&#45;&gt;AppComponent </title>
<path fill="none" stroke="black" stroke-dasharray="1,5" d="M635,-187.11C635,-187.11 635,-205.99 635,-205.99"/>
<polygon fill="black" stroke="black" points="631.5,-205.99 635,-215.99 638.5,-205.99 631.5,-205.99"/>
</g>
<!-- AppRoutingModule -->
<g id="node10" class="node">
<title>AppRoutingModule</title>
<polygon fill="#8dd3c7" stroke="black" points="1246.27,-122 1243.27,-126 1222.27,-126 1219.27,-122 1117.73,-122 1117.73,-86 1246.27,-86 1246.27,-122"/>
<text text-anchor="middle" x="1182" y="-99.8" font-family="Times,serif" font-size="14.00">AppRoutingModule</text>
</g>
<!-- AppRoutingModule&#45;&gt;AppModule -->
<g id="edge9" class="edge">
<title>AppRoutingModule&#45;&gt;AppModule</title>
<path fill="none" stroke="black" d="M1182,-122.01C1182,-144.49 1182,-180 1182,-180 1182,-180 687.01,-180 687.01,-180"/>
<polygon fill="black" stroke="black" points="687.01,-176.5 677.01,-180 687.01,-183.5 687.01,-176.5"/>
</g>
</g>
</svg>
