<?xml version="1.0" encoding="UTF-8" standalone="no"?>
<!DOCTYPE svg PUBLIC "-//W3C//DTD SVG 1.1//EN"
 "http://www.w3.org/Graphics/SVG/1.1/DTD/svg11.dtd">
<!-- Generated by graphviz version 2.47.0 (20210316.0004)
 -->
<!-- Title: dependencies Pages: 1 -->
<svg width="1792pt" height="284pt"
 viewBox="0.00 0.00 1792.00 284.00" xmlns="http://www.w3.org/2000/svg" xmlns:xlink="http://www.w3.org/1999/xlink">
<g id="graph0" class="graph" transform="scale(1 1) rotate(0) translate(4 280)">
<title>dependencies</title>
<polygon fill="white" stroke="transparent" points="-4,4 -4,-280 1788,-280 1788,4 -4,4"/>
<text text-anchor="start" x="871.01" y="-42.4" font-family="sans-serif" font-weight="bold" font-size="14.00">Legend</text>
<polygon fill="#ffffb3" stroke="transparent" points="658,-10 658,-30 678,-30 678,-10 658,-10"/>
<text text-anchor="start" x="681.63" y="-15.4" font-family="sans-serif" font-size="14.00"> &#160;Declarations</text>
<polygon fill="#8dd3c7" stroke="transparent" points="771,-10 771,-30 791,-30 791,-10 771,-10"/>
<text text-anchor="start" x="794.73" y="-15.4" font-family="sans-serif" font-size="14.00"> &#160;Module</text>
<polygon fill="#80b1d3" stroke="transparent" points="857,-10 857,-30 877,-30 877,-10 857,-10"/>
<text text-anchor="start" x="880.78" y="-15.4" font-family="sans-serif" font-size="14.00"> &#160;Bootstrap</text>
<polygon fill="#fdb462" stroke="transparent" points="954,-10 954,-30 974,-30 974,-10 954,-10"/>
<text text-anchor="start" x="977.67" y="-15.4" font-family="sans-serif" font-size="14.00"> &#160;Providers</text>
<polygon fill="#fb8072" stroke="transparent" points="1050,-10 1050,-30 1070,-30 1070,-10 1050,-10"/>
<text text-anchor="start" x="1073.73" y="-15.4" font-family="sans-serif" font-size="14.00"> &#160;Exports</text>
<g id="clust1" class="cluster">
<title>cluster_AppModule</title>
<polygon fill="none" stroke="black" stroke-dasharray="1,5" points="8,-70 8,-268 1776,-268 1776,-70 8,-70"/>
</g>
<g id="clust2" class="cluster">
<title>cluster_AppModule_declarations</title>
<polygon fill="none" stroke="black" points="390,-78 390,-130 1768,-130 1768,-78 390,-78"/>
</g>
<g id="clust13" class="cluster">
<title>cluster_AppModule_imports</title>
<polygon fill="none" stroke="black" points="238,-78 238,-130 382,-130 382,-78 238,-78"/>
</g>
<g id="clust15" class="cluster">
<title>cluster_AppModule_bootstrap</title>
<polygon fill="none" stroke="black" points="870,-208 870,-260 994,-260 994,-208 870,-208"/>
</g>
<g id="clust16" class="cluster">
<title>cluster_AppModule_providers</title>
<polygon fill="none" stroke="black" points="16,-78 16,-130 230,-130 230,-78 16,-78"/>
</g>
<!-- AppComponent -->
<g id="node1" class="node">
<title>AppComponent</title>
<polygon fill="#ffffb3" stroke="black" points="1759.94,-122 1654.06,-122 1654.06,-86 1759.94,-86 1759.94,-122"/>
<text text-anchor="middle" x="1707" y="-99.8" font-family="Times,serif" font-size="14.00">AppComponent</text>
</g>
<!-- AppModule -->
<g id="node11" class="node">
<title>AppModule</title>
<polygon fill="#8dd3c7" stroke="black" points="973.66,-187 970.66,-191 949.66,-191 946.66,-187 890.34,-187 890.34,-151 973.66,-151 973.66,-187"/>
<text text-anchor="middle" x="932" y="-164.8" font-family="Times,serif" font-size="14.00">AppModule</text>
</g>
<!-- AppComponent&#45;&gt;AppModule -->
<g id="edge1" class="edge">
<title>AppComponent&#45;&gt;AppModule</title>
<path fill="none" stroke="black" d="M1707,-122.25C1707,-145.02 1707,-181 1707,-181 1707,-181 983.67,-181 983.67,-181"/>
<polygon fill="black" stroke="black" points="983.67,-177.5 973.67,-181 983.67,-184.5 983.67,-177.5"/>
</g>
<!-- CommentComponent -->
<g id="node2" class="node">
<title>CommentComponent</title>
<polygon fill="#ffffb3" stroke="black" points="1636.06,-122 1499.94,-122 1499.94,-86 1636.06,-86 1636.06,-122"/>
<text text-anchor="middle" x="1568" y="-99.8" font-family="Times,serif" font-size="14.00">CommentComponent</text>
</g>
<!-- CommentComponent&#45;&gt;AppModule -->
<g id="edge2" class="edge">
<title>CommentComponent&#45;&gt;AppModule</title>
<path fill="none" stroke="black" d="M1568,-122.28C1568,-143.32 1568,-175 1568,-175 1568,-175 983.73,-175 983.73,-175"/>
<polygon fill="black" stroke="black" points="983.73,-171.5 973.73,-175 983.73,-178.5 983.73,-171.5"/>
</g>
<!-- FeedComponent -->
<g id="node3" class="node">
<title>FeedComponent</title>
<polygon fill="#ffffb3" stroke="black" points="1481.05,-122 1372.95,-122 1372.95,-86 1481.05,-86 1481.05,-122"/>
<text text-anchor="middle" x="1427" y="-99.8" font-family="Times,serif" font-size="14.00">FeedComponent</text>
</g>
<!-- FeedComponent&#45;&gt;AppModule -->
<g id="edge3" class="edge">
<title>FeedComponent&#45;&gt;AppModule</title>
<path fill="none" stroke="black" d="M1427,-122.11C1427,-141.34 1427,-169 1427,-169 1427,-169 983.78,-169 983.78,-169"/>
<polygon fill="black" stroke="black" points="983.78,-165.5 973.78,-169 983.78,-172.5 983.78,-165.5"/>
</g>
<!-- FirstPageComponent -->
<g id="node4" class="node">
<title>FirstPageComponent</title>
<polygon fill="#ffffb3" stroke="black" points="1355.21,-122 1220.79,-122 1220.79,-86 1355.21,-86 1355.21,-122"/>
<text text-anchor="middle" x="1288" y="-99.8" font-family="Times,serif" font-size="14.00">FirstPageComponent</text>
</g>
<!-- FirstPageComponent&#45;&gt;AppModule -->
<g id="edge4" class="edge">
<title>FirstPageComponent&#45;&gt;AppModule</title>
<path fill="none" stroke="black" d="M1288,-122.02C1288,-139.37 1288,-163 1288,-163 1288,-163 983.88,-163 983.88,-163"/>
<polygon fill="black" stroke="black" points="983.88,-159.5 973.88,-163 983.88,-166.5 983.88,-159.5"/>
</g>
<!-- LoginComponent -->
<g id="node5" class="node">
<title>LoginComponent</title>
<polygon fill="#ffffb3" stroke="black" points="1203.28,-122 1088.72,-122 1088.72,-86 1203.28,-86 1203.28,-122"/>
<text text-anchor="middle" x="1146" y="-99.8" font-family="Times,serif" font-size="14.00">LoginComponent</text>
</g>
<!-- LoginComponent&#45;&gt;AppModule -->
<g id="edge5" class="edge">
<title>LoginComponent&#45;&gt;AppModule</title>
<path fill="none" stroke="black" d="M1146,-122.24C1146,-137.57 1146,-157 1146,-157 1146,-157 983.77,-157 983.77,-157"/>
<polygon fill="black" stroke="black" points="983.77,-153.5 973.77,-157 983.77,-160.5 983.77,-153.5"/>
</g>
<!-- MainPageComponent -->
<g id="node6" class="node">
<title>MainPageComponent</title>
<polygon fill="#ffffb3" stroke="black" points="1071.09,-122 932.91,-122 932.91,-86 1071.09,-86 1071.09,-122"/>
<text text-anchor="middle" x="1002" y="-99.8" font-family="Times,serif" font-size="14.00">MainPageComponent</text>
</g>
<!-- MainPageComponent&#45;&gt;AppModule -->
<g id="edge6" class="edge">
<title>MainPageComponent&#45;&gt;AppModule</title>
<path fill="none" stroke="black" d="M953.39,-122.11C953.39,-122.11 953.39,-140.99 953.39,-140.99"/>
<polygon fill="black" stroke="black" points="949.89,-140.99 953.39,-150.99 956.89,-140.99 949.89,-140.99"/>
</g>
<!-- PostComponent -->
<g id="node7" class="node">
<title>PostComponent</title>
<polygon fill="#ffffb3" stroke="black" points="914.95,-122 809.05,-122 809.05,-86 914.95,-86 914.95,-122"/>
<text text-anchor="middle" x="862" y="-99.8" font-family="Times,serif" font-size="14.00">PostComponent</text>
</g>
<!-- PostComponent&#45;&gt;AppModule -->
<g id="edge7" class="edge">
<title>PostComponent&#45;&gt;AppModule</title>
<path fill="none" stroke="black" d="M902.45,-122.11C902.45,-122.11 902.45,-140.99 902.45,-140.99"/>
<polygon fill="black" stroke="black" points="898.95,-140.99 902.45,-150.99 905.95,-140.99 898.95,-140.99"/>
</g>
<!-- PosterComponent -->
<g id="node8" class="node">
<title>PosterComponent</title>
<polygon fill="#ffffb3" stroke="black" points="791.33,-122 674.67,-122 674.67,-86 791.33,-86 791.33,-122"/>
<text text-anchor="middle" x="733" y="-99.8" font-family="Times,serif" font-size="14.00">PosterComponent</text>
</g>
<!-- PosterComponent&#45;&gt;AppModule -->
<g id="edge8" class="edge">
<title>PosterComponent&#45;&gt;AppModule</title>
<path fill="none" stroke="black" d="M733,-122.24C733,-137.57 733,-157 733,-157 733,-157 880.28,-157 880.28,-157"/>
<polygon fill="black" stroke="black" points="880.28,-160.5 890.28,-157 880.28,-153.5 880.28,-160.5"/>
</g>
<!-- ProfileComponent -->
<g id="node9" class="node">
<title>ProfileComponent</title>
<polygon fill="#ffffb3" stroke="black" points="656.93,-122 537.07,-122 537.07,-86 656.93,-86 656.93,-122"/>
<text text-anchor="middle" x="597" y="-99.8" font-family="Times,serif" font-size="14.00">ProfileComponent</text>
</g>
<!-- ProfileComponent&#45;&gt;AppModule -->
<g id="edge9" class="edge">
<title>ProfileComponent&#45;&gt;AppModule</title>
<path fill="none" stroke="black" d="M597,-122.02C597,-139.37 597,-163 597,-163 597,-163 880.25,-163 880.25,-163"/>
<polygon fill="black" stroke="black" points="880.25,-166.5 890.25,-163 880.25,-159.5 880.25,-166.5"/>
</g>
<!-- SignupComponent -->
<g id="node10" class="node">
<title>SignupComponent</title>
<polygon fill="#ffffb3" stroke="black" points="519.51,-122 398.49,-122 398.49,-86 519.51,-86 519.51,-122"/>
<text text-anchor="middle" x="459" y="-99.8" font-family="Times,serif" font-size="14.00">SignupComponent</text>
</g>
<!-- SignupComponent&#45;&gt;AppModule -->
<g id="edge10" class="edge">
<title>SignupComponent&#45;&gt;AppModule</title>
<path fill="none" stroke="black" d="M459,-122.11C459,-141.34 459,-169 459,-169 459,-169 880.02,-169 880.02,-169"/>
<polygon fill="black" stroke="black" points="880.02,-172.5 890.02,-169 880.02,-165.5 880.02,-172.5"/>
</g>
<!-- AppComponent  -->
<g id="node13" class="node">
<title>AppComponent </title>
<polygon fill="#80b1d3" stroke="black" points="986.44,-252 877.56,-252 877.56,-216 986.44,-216 986.44,-252"/>
<text text-anchor="middle" x="932" y="-229.8" font-family="Times,serif" font-size="14.00">AppComponent </text>
</g>
<!-- AppModule&#45;&gt;AppComponent  -->
<g id="edge12" class="edge">
<title>AppModule&#45;&gt;AppComponent </title>
<path fill="none" stroke="black" stroke-dasharray="1,5" d="M932,-187.11C932,-187.11 932,-205.99 932,-205.99"/>
<polygon fill="black" stroke="black" points="928.5,-205.99 932,-215.99 935.5,-205.99 928.5,-205.99"/>
</g>
<!-- AppRoutingModule -->
<g id="node12" class="node">
<title>AppRoutingModule</title>
<polygon fill="#8dd3c7" stroke="black" points="374.27,-122 371.27,-126 350.27,-126 347.27,-122 245.73,-122 245.73,-86 374.27,-86 374.27,-122"/>
<text text-anchor="middle" x="310" y="-99.8" font-family="Times,serif" font-size="14.00">AppRoutingModule</text>
</g>
<!-- AppRoutingModule&#45;&gt;AppModule -->
<g id="edge11" class="edge">
<title>AppRoutingModule&#45;&gt;AppModule</title>
<path fill="none" stroke="black" d="M310,-122.28C310,-143.32 310,-175 310,-175 310,-175 880.22,-175 880.22,-175"/>
<polygon fill="black" stroke="black" points="880.22,-178.5 890.22,-175 880.22,-171.5 880.22,-178.5"/>
</g>
<!-- AppInterceptorService -->
<g id="node14" class="node">
<title>AppInterceptorService</title>
<ellipse fill="#fdb462" stroke="black" cx="123" cy="-104" rx="98.95" ry="18"/>
<text text-anchor="middle" x="123" y="-99.8" font-family="Times,serif" font-size="14.00">AppInterceptorService</text>
</g>
<!-- AppInterceptorService&#45;&gt;AppModule -->
<g id="edge13" class="edge">
<title>AppInterceptorService&#45;&gt;AppModule</title>
<path fill="none" stroke="black" d="M123,-122.25C123,-145.02 123,-181 123,-181 123,-181 880.21,-181 880.21,-181"/>
<polygon fill="black" stroke="black" points="880.21,-184.5 890.21,-181 880.21,-177.5 880.21,-184.5"/>
</g>
</g>
</svg>
